# xmcd
#
# Track frame offsets: 
#        150
#        11194
#        27382
#        48707
#        63878
#        73758
#        89847
#        115407
#        131319
#        171496
#        186438
#        209888
#
# Disc length: 3007 seconds
#
# Revision: 0
# Processed by: cddbd v1.5PL3 Copyright (c) Steve Scherf et al.
# Submitted via: ExactAudioCopy v0.95a4
#
DISCID=c20bbd0c
DTITLE=Various Artist - Best of British Blues, Vol. 1
DYEAR=2003
DGENRE=Blues
TTITLE0=The Graham Bond Organisation - Traintime
TTITLE1=Eric Clapton, John Mayall and the Bluesbreakers - All Your Love
TTITLE2=Cream - Rollin' and Tumblin'
TTITLE3=John Mayall and the Bluesbreakers - Double Trouble
TTITLE4=Ten Years After - I Want to Know
TTITLE5=John Mayall and the Bluesbreakers - Oh, Pretty Woman
TTITLE6=Jethro Tull - Cat's Squirrel
TTITLE7=Free - Walk in My Shadow
TTITLE8=Savoy Brown - Louisiana Blues
TTITLE9=Climax Chicago Blues Band - Don't Start Me Talking
TTITLE10=Blodwyn Pig - Dear Jill
TTITLE11=Fleetwood Mac - Rattlesnake Shake
EXTD=
EXTT0=
EXTT1=
EXTT2=
EXTT3=
EXTT4=
EXTT5=
EXTT6=
EXTT7=
EXTT8=
EXTT9=
EXTT10=
EXTT11=
PLAYORDER=
